#!OML:ASF E:\acrobat2\Project_11_07_03\Capture day 1\Session 1\Acrobat.ASF
:FULLY-SPECIFIED
:DEGREES
439
root 11.5997 16.6796 11.8946 19.8977 -8.74627 7.57476
lowerback 22.9391 0.528892 -4.53118
upperback 5.98896 -0.517839 -1.92683
thorax -6.18875 -0.217654 0.64148
lowerneck 3.30266 -2.31711 -0.734744
upperneck -30.4155 -2.38436 4.33611
head -10.1239 -1.57772 1.9085
rclavicle -1.59028e-015 -9.74045e-015
rhumerus -97.2341 10.0883 5.46326
rradius 10.8589
rwrist 35.2039
rhand 2.61314 -40.3555
rfingers 7.12502
rthumb 28.0908 -68.272
lclavicle -1.59028e-015 -9.74045e-015
lhumerus -94.1306 0.368182 78.0341
lradius 0.767408
lwrist 8.19766
lhand 8.24264 -11.9991
lfingers 7.12502
lthumb 33.4577 14.9034
rfemur -80.4286 -11.3151 6.47657
rtibia 87.7073
rfoot -24.0823 -3.85508
rtoes 8.87282
lfemur -82.8732 0.725346 -22.9222
ltibia 87.9472
lfoot -18.6427 -6.64036
ltoes 16.0692
440
root 11.6097 16.5339 11.8753 19.6816 -8.86961 7.6388
lowerback 23.3342 0.53482 -4.587
upperback 5.8235 -0.558833 -1.97035
thorax -6.57069 -0.227767 0.637099
lowerneck 4.28899 -2.25872 -0.984559
upperneck -31.552 -2.28308 4.46319
head -10.7443 -1.52655 2.04031
rclavicle 1.33186e-014 2.127e-014
rhumerus -97.7214 6.81877 1.11204
rradius 11.0645
rwrist 31.2018
rhand 2.24824 -39.911
rfingers 7.12502
rthumb 27.742 -67.8842
lclavicle 1.33186e-014 2.127e-014
lhumerus -91.4819 0.257719 77.9565
lradius 1.03479
lwrist 6.96644
lhand 7.01379 -12.5123
lfingers 7.12502
lthumb 32.2888 14.6353
rfemur -80.9534 -11.5274 6.58177
rtibia 88.5573
rfoot -24.221 -3.48688
rtoes 9.51974
lfemur -83.1479 0.831597 -23.0579
ltibia 88.5224
lfoot -18.9211 -6.67909
ltoes 16.5494
441
root 11.6216 16.4063 11.859 19.4234 -9.00832 7.65506
lowerback 23.6678 0.507831 -4.59001
upperback 5.71252 -0.627084 -2.04393
thorax -6.8618 -0.253926 0.577935
lowerneck 4.95002 -2.14037 -1.15253
upperneck -32.4811 -2.08638 4.58817
head -11.2409 -1.43685 2.13749
rclavicle 3.77691e-015 -3.45885e-014
rhumerus -97.5618 2.91927 -3.48751
rradius 11.3245
rwrist 26.5706
rhand 1.13459 -39.7984
rfingers 7.12502
rthumb 26.6767 -67.9385
lclavicle 3.77691e-015 -3.45885e-014
lhumerus -88.1897 0.23429 77.8343
lradius 1.15818
lwrist 5.40046
lhand 5.48083 -13.047
lfingers 7.12502
lthumb 30.8285 14.3871
rfemur -81.4481 -11.733 6.73669
rtibia 89.3928
rfoot -24.2154 -3.06638
rtoes 10.1655
lfemur -83.2428 0.95084 -23.1365
ltibia 88.939
lfoot -19.1648 -6.71036
ltoes 16.8738
442
root 11.6359 16.2975 11.8464 19.1196 -9.14665 7.62082
lowerback 23.9273 0.436685 -4.53779
upperback 5.64421 -0.734761 -2.14055
thorax -7.06809 -0.301964 0.473936
lowerneck 5.25191 -1.99808 -1.19652
upperneck -33.1182 -1.85467 4.65449
head -11.5636 -1.33671 2.17188
rclavicle 1.80894e-014 -2.5842e-014
rhumerus -96.5616 -1.42233 -7.97856
rradius 11.5794
rwrist 22.1438
rhand -0.462471 -39.9806
rfingers 7.12502
rthumb 25.1473 -68.3443
lclavicle 1.80894e-014 -2.5842e-014
lhumerus -84.296 0.333312 77.7144
lradius 1.04971
lwrist 3.29591
lhand 3.60535 -13.695
lfingers 7.12502
lthumb 29.0389 14.0621
rfemur -81.8344 -11.9329 6.92445
rtibia 90.1408
rfoot -24.0935 -2.62982
rtoes 10.5883
lfemur -83.1697 1.05809 -23.1565
ltibia 89.2353
lfoot -19.365 -6.72702
ltoes 17.0612
443
root 11.6523 16.208 11.8383 18.7438 -9.24834 7.54379
lowerback 24.1176 0.314707 -4.43413
upperback 5.60927 -0.889987 -2.24442
thorax -7.20206 -0.375316 0.347066
lowerneck 5.30526 -1.84921 -1.14067
upperneck -33.5135 -1.61009 4.68352
head -11.745 -1.2374 2.16049
rclavicle -9.93923e-016 -9.93923e-015
rhumerus -94.6758 -6.01904 -12.227
rradius 11.7593
rwrist 18.5975
rhand -2.18727 -40.4253
rfingers 7.12502
rthumb 23.4938 -69.0107
lclavicle -9.93923e-016 -9.93923e-015
lhumerus -79.8877 0.547768 77.6417
lradius 0.77677
lwrist 0.582058
lhand 1.46056 -14.4125
lfingers 7.12502
lthumb 26.9886 13.6797
rfemur -82.0072 -12.142 7.12388
rtibia 90.732
rfoot -23.8914 -2.21876
rtoes 10.6983
lfemur -82.9174 1.11675 -23.1207
ltibia 89.4463
lfoot -19.512 -6.71922
ltoes 17.0941
444
root 11.671 16.1376 11.8352 18.2847 -9.30377 7.43408
lowerback 24.2307 0.145161 -4.29282
upperback 5.57984 -1.09128 -2.34326
thorax -7.29076 -0.472184 0.218154
lowerneck 5.28167 -1.68717 -1.01799
upperneck -33.7248 -1.35248 4.66297
head -11.8389 -1.13395 2.10937
rclavicle 3.13086e-015 -3.28989e-014
rhumerus -91.9287 -10.6953 -16.2692
rradius 11.812
rwrist 16.3246
rhand -3.63505 -41.0304
rfingers 7.12502
rthumb 22.1044 -69.7869
lclavicle 3.13086e-015 -3.28989e-014
lhumerus -75.0306 0.851791 77.6553
lradius 0.326859
lwrist -2.56509
lhand -0.786879 -15.256
lfingers 7.12502
lthumb 24.8365 13.1509
rfemur -81.9131 -12.369 7.31408
rtibia 91.1369
rfoot -23.6743 -1.79974
rtoes 10.6185
lfemur -82.499 1.10413 -23.0417
ltibia 89.6046
lfoot -19.5945 -6.67046
ltoes 17.0135
445
root 11.6931 16.0864 11.8355 17.7308 -9.30747 7.31717
lowerback 24.1911 -0.0523205 -4.10341
upperback 5.57366 -1.30488 -2.4272
thorax -7.27769 -0.577821 0.081302
lowerneck 5.39423 -1.53679 -0.962478
upperneck -33.9008 -1.11424 4.6744
head -11.9444 -1.03576 2.08505
rclavicle 6.55989e-015 -4.11236e-014
rhumerus -88.3802 -15.392 -20.3137
rradius 11.7488
rwrist 15.2148
rhand -4.62079 -41.7332
rfingers 7.12502
rthumb 21.1577 -70.5986
lclavicle 6.55989e-015 -4.11236e-014
lhumerus -69.7334 1.167 77.8375
lradius -0.219632
lwrist -5.78329
lhand -2.98855 -16.0254
lfingers 7.12502
lthumb 22.725 12.6563
rfemur -81.5157 -12.6394 7.45904
rtibia 91.3378
rfoot -23.4803 -1.37882
rtoes 10.4627
lfemur -81.9212 0.98112 -22.9468
ltibia 89.7221
lfoot -19.6044 -6.564
ltoes 16.9064
